<?xml version="1.0" encoding="UTF-8" standalone="no"?>
<!DOCTYPE svg PUBLIC "-//W3C//DTD SVG 1.1//EN" "http://www.w3.org/Graphics/SVG/1.1/DTD/svg11.dtd">
<svg width="100%" height="100%" viewBox="0 0 800 800" version="1.1" xmlns="http://www.w3.org/2000/svg" xmlns:xlink="http://www.w3.org/1999/xlink" xml:space="preserve" xmlns:serif="http://www.serif.com/" style="fill-rule:evenodd;clip-rule:evenodd;stroke-linejoin:round;stroke-miterlimit:2;">
    <g transform="matrix(0.78125,0,0,0.78125,0,0)">
        <path d="M507.52,718.08C507.52,709.12 503.04,704.64 494.08,700.16C467.2,691.2 440.32,691.2 417.92,668.779C413.44,659.819 413.44,650.859 408.96,641.899C400,632.939 377.6,628.459 364.16,623.979L274.56,623.979C261.12,619.499 252.16,601.579 243.2,588.139C243.2,583.659 243.2,574.677 234.24,574.677C225.28,570.219 216.32,579.179 207.36,574.677C202.88,570.219 202.88,565.717 202.88,561.259C202.88,547.797 211.84,534.357 220.8,525.397C234.24,516.437 247.68,529.877 261.12,529.877C265.6,529.877 265.6,529.877 270.08,534.357C283.52,538.837 288,556.757 288,570.219L288,579.179C288,583.659 292.48,583.659 296.96,583.659C301.44,561.259 301.44,538.837 305.92,516.459C305.92,489.579 332.8,462.677 355.2,453.739C364.16,449.28 368.64,458.24 377.6,453.739C404.48,444.779 471.68,417.899 458.24,382.08C449.28,350.699 422.4,319.381 386.56,323.84C377.6,328.341 373.12,332.8 364.16,337.301C350.72,346.261 323.84,373.141 310.4,373.141C288,368.661 288,337.301 292.48,323.84C296.96,305.92 337.28,247.701 364.16,256.661L382.08,274.581C391.04,279.061 404.48,279.061 417.92,279.061C422.4,279.061 426.88,279.061 431.36,274.581C435.84,270.101 435.84,270.101 435.84,265.621C435.84,252.181 422.4,238.72 413.44,229.76C404.48,220.8 391.04,211.84 377.6,207.381C332.8,193.92 261.12,211.84 225.28,243.221C189.44,274.581 162.56,328.341 144.64,373.141C135.68,400.021 126.72,435.84 122.24,467.221C117.76,489.621 113.28,507.541 126.72,529.92C140.16,556.8 167.04,583.701 193.92,601.6C211.84,615.04 247.68,615.04 265.6,637.44C279.04,655.381 274.56,677.76 274.56,700.16C274.56,727.04 292.48,749.44 301.44,771.819C305.92,785.28 310.4,803.2 314.88,816.64C314.88,821.12 319.36,848 319.36,852.48C346.24,865.92 368.64,879.381 400,888.341C404.48,888.341 422.4,861.44 422.4,856.96C435.84,843.52 444.8,825.6 458.24,816.64C467.2,812.16 476.16,807.68 485.12,798.699C494.08,789.739 498.56,771.819 503.04,758.379C507.52,749.44 512,731.52 507.52,718.08M516.48,305.92C520.96,305.92 525.44,301.44 534.4,296.96C547.84,288 561.301,274.56 574.72,265.6C588.181,256.64 601.621,243.2 610.581,234.24C624.021,225.28 632.981,207.36 637.461,193.899C641.941,184.939 655.403,167.019 650.901,153.579C646.421,144.619 624.021,140.139 615.061,135.659C579.2,126.699 547.84,122.24 512,122.24C498.56,122.24 480.64,126.699 476.16,140.16C471.68,162.56 489.6,158.08 507.52,162.56C507.52,162.56 512,198.4 512,202.88C516.48,225.301 503.04,238.72 503.04,261.12C503.04,274.56 503.04,296.96 512,305.92L516.48,305.92ZM892.8,619.52C897.301,610.56 897.301,597.12 901.76,588.16C906.261,565.739 906.261,543.36 906.261,520.96C906.261,476.16 901.76,431.381 888.341,391.04C879.381,377.6 874.88,364.16 870.4,350.699C861.44,328.32 848,305.899 830.08,288C812.16,265.6 789.739,202.88 749.44,220.8C736,225.301 727.04,243.221 718.08,252.181L691.2,292.501C686.699,296.981 682.24,305.941 686.699,310.421C686.699,314.901 691.2,314.901 695.659,314.901C704.619,319.403 709.12,319.403 718.08,323.861C722.56,323.861 727.04,328.363 722.56,332.821C722.56,332.821 722.56,337.323 718.08,337.323C695.659,359.723 673.28,377.643 650.88,400.021C646.4,404.501 641.92,413.461 641.92,417.941C641.92,422.421 646.4,422.421 646.4,426.901C646.4,431.403 641.92,431.403 637.44,435.861C628.48,440.363 619.52,444.821 615.04,449.323C610.56,458.283 615.04,471.723 610.56,480.683C606.08,503.083 592.619,521.003 583.659,543.403C574.699,556.821 570.24,570.283 561.28,583.723C561.28,601.643 556.779,615.083 565.739,628.523C588.16,659.883 628.459,641.963 659.819,655.424C668.779,659.883 677.739,659.883 682.24,668.843C695.659,682.304 695.659,704.704 700.16,718.144C704.619,736.064 709.12,753.984 718.08,771.904C722.56,794.325 731.52,816.725 736,834.624C776.341,803.264 812.16,767.445 839.04,722.624C865.92,691.2 879.381,655.381 892.8,619.52" style="fill:rgb(64,64,64);fill-rule:nonzero;"/>
    </g>
</svg>
