<?xml version="1.0" encoding="UTF-8" standalone="no"?>
<!DOCTYPE svg PUBLIC "-//W3C//DTD SVG 1.1//EN" "http://www.w3.org/Graphics/SVG/1.1/DTD/svg11.dtd">
<svg width="100%" height="100%" viewBox="0 0 800 800" version="1.1" xmlns="http://www.w3.org/2000/svg" xmlns:xlink="http://www.w3.org/1999/xlink" xml:space="preserve" xmlns:serif="http://www.serif.com/" style="fill-rule:evenodd;clip-rule:evenodd;stroke-linejoin:round;stroke-miterlimit:2;">
    <g transform="matrix(42.105263,0,0,42.105263,42.105263,0)">
        <path d="M16.417,9.5C16.415,13.843 12.841,17.415 8.498,17.415C5.323,17.415 2.442,15.506 1.205,12.582C0.793,11.607 0.582,10.559 0.584,9.5C0.584,9.196 0.834,8.946 1.139,8.946C1.443,8.946 1.693,9.196 1.693,9.5C1.696,13.234 4.769,16.305 8.503,16.305C11.233,16.305 13.71,14.664 14.774,12.15C15.127,11.313 15.309,10.413 15.309,9.504C15.309,5.767 12.234,2.693 8.498,2.693C7.311,2.693 6.144,3.003 5.114,3.593C4.411,3.998 3.786,4.524 3.267,5.147L4.543,5.147C4.847,5.147 5.097,5.397 5.097,5.701C5.097,6.005 4.847,6.255 4.543,6.255L1.933,6.255C1.933,6.255 1.932,6.255 1.932,6.255C1.628,6.255 1.378,6.005 1.378,5.701L1.378,3.09C1.378,2.786 1.628,2.536 1.932,2.536C2.237,2.536 2.487,2.786 2.487,3.09L2.487,4.352C3.988,2.594 6.188,1.581 8.5,1.583C8.502,1.583 8.504,1.583 8.506,1.583C12.846,1.583 16.417,5.154 16.417,9.494C16.417,9.496 16.417,9.498 16.417,9.5ZM11.236,12.5C11.132,12.604 10.991,12.663 10.844,12.663C10.697,12.663 10.556,12.604 10.452,12.5L8.032,10.08C7.894,9.976 7.812,9.812 7.812,9.639L7.812,5.168C7.812,4.864 8.063,4.613 8.367,4.613C8.671,4.613 8.922,4.864 8.922,5.168L8.922,9.402L11.236,11.717C11.34,11.821 11.399,11.962 11.399,12.109C11.399,12.256 11.34,12.397 11.236,12.501L11.236,12.5Z" style="fill:rgb(64,64,64);fill-rule:nonzero;stroke:rgb(64,64,64);stroke-width:0.02px;"/>
    </g>
</svg>
